<svg xmlns="http://www.w3.org/2000/svg" xmlns:xlink="http://www.w3.org/1999/xlink" width="678" height="198" viewBox="0 0 678 198"><defs><clipPath id="b"><rect width="678" height="198"/></clipPath></defs><g id="a" clip-path="url(#b)"><rect width="678" height="198" fill="#fff"/><g transform="translate(12 16)"><rect width="33.939" height="27.04" transform="translate(286.759 1.119)" fill="#262626"/><rect width="33.939" height="27.04" transform="translate(518.141 1.119)" fill="#262626"/><path d="M32.975-1433.267c-9.883-10.439-11.375-25.543-11.375-55.375,0-28.527,1.305-47.172,12.121-57.429,4.848-4.474,11.748-8.016,23.123-8.016,11,0,17.529,1.3,23.123,4.66V-1589.7h33.939v164.265l-28.531.373-.932-6.151c-7.273,5.22-15.851,6.709-28.9,6.709C45.656-1424.317,38.01-1427.86,32.975-1433.267Zm46.993-54.256c0-27.407-1.305-33.75-13.054-33.75-9.883,0-11,6.342-11,33.75,0,27.221,1.305,32.254,11,32.254C78.476-1455.269,79.968-1459.929,79.968-1487.523Z" transform="translate(152.727 1589.701)" fill="#262626" fill-rule="evenodd"/><path d="M-71.9-1589.6h34.126v163.889H-71.9Z" transform="translate(71.9 1589.787)" fill="#262626"/><path d="M41.1-1530.894c0-13.241-2.238-23.682-7.459-29.464-5.781-6.527-16.783-10.443-31.515-10.443-14.918,0-34.871,4.661-42.144,7.458l7.832,26.667c8.019-2.982,21.818-5.78,32.074-4.476,4.1.56,7.459,4.291,7.646,13.987H5.482c-36.55,0-51.282,8.2-51.282,43.823,0,34.5,12.121,42.517,32.82,42.517,13.053,0,19.767-2.05,24.8-6.713l1.305,5.967,27.412-.746ZM7.533-1500.5l.186,14.172c0,11-1.678,16.6-12.121,16.6-7.086,0-8.578-3.916-8.578-16.225C-12.98-1496.955-11.674-1500.5,7.533-1500.5Z" transform="translate(94.471 1606.02)" fill="#262626" fill-rule="evenodd"/><path d="M319.7-1530.894c0-13.241-2.238-23.682-7.459-29.464-5.781-6.527-16.783-10.443-31.515-10.443-15.1,0-34.872,4.661-42.144,7.458l7.832,26.667c8.019-2.982,21.818-5.78,32.074-4.476,4.1.56,7.459,4.291,7.646,13.987h-2.051c-36.55,0-51.282,8.2-51.282,43.823,0,34.5,12.121,42.517,32.82,42.517,13.054,0,19.767-2.05,24.8-6.713l1.306,5.967,27.412-.746Zm-33.38,30.4.186,14.172c0,11-1.678,16.6-12.121,16.6-7.086,0-8.578-3.916-8.578-16.225C265.807-1496.955,266.926-1500.5,286.32-1500.5Z" transform="translate(335.301 1606.02)" fill="#262626" fill-rule="evenodd"/><rect width="33.939" height="127.179" transform="translate(518.141 37.085)" fill="#262626"/><path d="M165.8-1568.223l28.345-1.677,1.492,6.9c6.154-4.849,13.986-6.713,26.853-6.9v33.38c-15.1.373-22.564,4.847-22.564,22v71.793H165.8Z" transform="translate(277.386 1606.798)" fill="#262626"/><path d="M196.5-1530.894c0-13.241-2.051-23.682-7.459-29.464-5.781-6.527-16.783-10.443-31.515-10.443-14.918,0-34.871,4.661-42.144,7.458l7.832,26.667c8.019-2.982,21.818-5.78,32.074-4.476,4.1.56,7.459,4.291,7.646,13.987h-2.051c-36.55,0-51.282,8.2-51.282,43.823,0,34.5,12.121,42.517,32.82,42.517,13.053,0,19.767-2.05,24.8-6.713l1.305,5.967,27.412-.746Zm-33.566,30.4.186,14.172c0,11-1.678,16.6-12.121,16.6-7.086,0-8.578-3.916-8.578-16.225C142.42-1496.955,143.726-1500.5,162.933-1500.5Z" transform="translate(228.799 1606.02)" fill="#262626" fill-rule="evenodd"/><rect width="33.939" height="127.179" transform="translate(286.759 37.085)" fill="#262626"/></g></g></svg>